{
	"asset":{
		"generator":"Khronos glTF Blender I/O v4.1.62",
		"version":"2.0"
	},
	"scene":0,
	"scenes":[
		{
			"name":"Scene",
			"nodes":[
				0
			]
		}
	],
	"nodes":[
		{
			"mesh":0,
			"name":"Cube",
			"rotation":[
				0.7027544975280762,
				-0.7114264369010925,
				-0.0028799837455153465,
				0.00047816542792133987
			],
			"scale":[
				1,
				0.1458842158317566,
				0.5947346687316895
			],
			"translation":[
				-0.1534155309200287,
				1.32854163646698,
				-0.06192105636000633
			]
		}
	],
	"materials":[
		{
			"doubleSided":true,
			"name":"Material_1.001",
			"pbrMetallicRoughness":{
				"baseColorFactor":[
					0.057691507041454315,
					0.04802733287215233,
					0.07523564249277115,
					1
				],
				"metallicFactor":0,
				"roughnessFactor":0.5
			}
		},
		{
			"doubleSided":true,
			"name":"Material_Face1.001",
			"pbrMetallicRoughness":{
				"baseColorTexture":{
					"index":0
				},
				"metallicFactor":0,
				"roughnessFactor":0.5
			}
		},
		{
			"doubleSided":true,
			"name":"Material_Face2.001",
			"pbrMetallicRoughness":{
				"baseColorTexture":{
					"index":1
				},
				"metallicFactor":0,
				"roughnessFactor":0.5
			}
		},
		{
			"doubleSided":true,
			"name":"Material_Face3.001",
			"pbrMetallicRoughness":{
				"baseColorTexture":{
					"index":2
				},
				"metallicFactor":0,
				"roughnessFactor":0.5
			}
		}
	],
	"meshes":[
		{
			"name":"Cube.001",
			"primitives":[
				{
					"attributes":{
						"POSITION":0,
						"NORMAL":1,
						"TEXCOORD_0":2
					},
					"indices":3,
					"material":0
				},
				{
					"attributes":{
						"POSITION":4,
						"NORMAL":5,
						"TEXCOORD_0":6
					},
					"indices":7,
					"material":1
				},
				{
					"attributes":{
						"POSITION":8,
						"NORMAL":9,
						"TEXCOORD_0":10
					},
					"indices":11,
					"material":2
				},
				{
					"attributes":{
						"POSITION":12,
						"NORMAL":13,
						"TEXCOORD_0":14
					},
					"indices":15,
					"material":3
				}
			]
		}
	],
	"textures":[
		{
			"sampler":0,
			"source":0
		},
		{
			"sampler":0,
			"source":1
		},
		{
			"sampler":0,
			"source":2
		}
	],
	"images":[
		{
			"mimeType":"image/jpeg",
			"name":"coverImage",
			"uri":"assets/model/ThienSuNhaBenTap33/ThienSuNhaBenTap1_2.jpg"
		},
		{
			"mimeType":"image/jpeg",
			"name":"Image",
			"uri":"assets/model/ThienSuNhaBenTap33/ThienSuNhaBenTap3_3.jpg"
		},
		{
			"mimeType":"image/jpeg",
			"name":"mainImage",
			"uri":"assets/model/ThienSuNhaBenTap33/ThienSuNhaBenTap3_1.jpg"
		}
	],
	"accessors":[
		{
			"bufferView":0,
			"componentType":5126,
			"count":120,
			"max":[
				1,
				3.985530376434326,
				1.6154534816741943
			],
			"min":[
				-1,
				1.9855303764343262,
				-1
			],
			"type":"VEC3"
		},
		{
			"bufferView":1,
			"componentType":5126,
			"count":120,
			"type":"VEC3"
		},
		{
			"bufferView":2,
			"componentType":5126,
			"count":120,
			"type":"VEC2"
		},
		{
			"bufferView":3,
			"componentType":5123,
			"count":288,
			"type":"SCALAR"
		},
		{
			"bufferView":4,
			"componentType":5126,
			"count":10,
			"max":[
				1,
				3.985530376434326,
				1.5072554349899292
			],
			"min":[
				-1,
				3.961663246154785,
				-1
			],
			"type":"VEC3"
		},
		{
			"bufferView":5,
			"componentType":5126,
			"count":10,
			"type":"VEC3"
		},
		{
			"bufferView":6,
			"componentType":5126,
			"count":10,
			"type":"VEC2"
		},
		{
			"bufferView":7,
			"componentType":5123,
			"count":18,
			"type":"SCALAR"
		},
		{
			"bufferView":8,
			"componentType":5126,
			"count":40,
			"max":[
				1,
				3.961663246154785,
				1.6154534816741943
			],
			"min":[
				-1,
				2.009404420852661,
				1.5072554349899292
			],
			"type":"VEC3"
		},
		{
			"bufferView":9,
			"componentType":5126,
			"count":40,
			"type":"VEC3"
		},
		{
			"bufferView":10,
			"componentType":5126,
			"count":40,
			"type":"VEC2"
		},
		{
			"bufferView":11,
			"componentType":5123,
			"count":60,
			"type":"SCALAR"
		},
		{
			"bufferView":12,
			"componentType":5126,
			"count":10,
			"max":[
				1,
				2.009404420852661,
				1.5099608898162842
			],
			"min":[
				-1,
				1.9855303764343262,
				-1
			],
			"type":"VEC3"
		},
		{
			"bufferView":13,
			"componentType":5126,
			"count":10,
			"type":"VEC3"
		},
		{
			"bufferView":14,
			"componentType":5126,
			"count":10,
			"type":"VEC2"
		},
		{
			"bufferView":15,
			"componentType":5123,
			"count":18,
			"type":"SCALAR"
		}
	],
	"bufferViews":[
		{
			"buffer":0,
			"byteLength":1440,
			"byteOffset":0,
			"target":34962
		},
		{
			"buffer":0,
			"byteLength":1440,
			"byteOffset":1440,
			"target":34962
		},
		{
			"buffer":0,
			"byteLength":960,
			"byteOffset":2880,
			"target":34962
		},
		{
			"buffer":0,
			"byteLength":576,
			"byteOffset":3840,
			"target":34963
		},
		{
			"buffer":0,
			"byteLength":120,
			"byteOffset":4416,
			"target":34962
		},
		{
			"buffer":0,
			"byteLength":120,
			"byteOffset":4536,
			"target":34962
		},
		{
			"buffer":0,
			"byteLength":80,
			"byteOffset":4656,
			"target":34962
		},
		{
			"buffer":0,
			"byteLength":36,
			"byteOffset":4736,
			"target":34963
		},
		{
			"buffer":0,
			"byteLength":480,
			"byteOffset":4772,
			"target":34962
		},
		{
			"buffer":0,
			"byteLength":480,
			"byteOffset":5252,
			"target":34962
		},
		{
			"buffer":0,
			"byteLength":320,
			"byteOffset":5732,
			"target":34962
		},
		{
			"buffer":0,
			"byteLength":120,
			"byteOffset":6052,
			"target":34963
		},
		{
			"buffer":0,
			"byteLength":120,
			"byteOffset":6172,
			"target":34962
		},
		{
			"buffer":0,
			"byteLength":120,
			"byteOffset":6292,
			"target":34962
		},
		{
			"buffer":0,
			"byteLength":80,
			"byteOffset":6412,
			"target":34962
		},
		{
			"buffer":0,
			"byteLength":36,
			"byteOffset":6492,
			"target":34963
		}
	],
	"samplers":[
		{
			"magFilter":9729,
			"minFilter":9987
		}
	],
	"buffers":[
		{
			"byteLength":6528,
			"uri":"assets/model/ThienSuNhaBenTap33/ThienSuNhaBenTap3.bin"
		}
	]
}
